<svg xmlns="http://www.w3.org/2000/svg" xmlns:xlink="http://www.w3.org/1999/xlink" version="1.1" id="Capa_1" x="0px" y="0px" viewBox="0 0 193.187 193.187" style="enable-background:new 0 0 193.187 193.187;" xml:space="preserve" width="224"  height="224" >
<path d="M187.942,129.541l2.77,1.782c1.063,0.684,1.449,2.055,0.897,3.193l-25.129,51.848c-0.428,0.883-1.315,1.409-2.25,1.409  c-0.27,0-0.543-0.044-0.811-0.136l-15.667-5.381l-4.059,8.376c-0.312,0.644-0.885,1.122-1.573,1.316  c-0.222,0.063-0.45,0.093-0.676,0.093c-0.475,0-0.945-0.136-1.353-0.397l-29.41-18.923c-1.063-0.685-1.449-2.055-0.897-3.193  l33.483-69.083c0.551-1.137,1.864-1.682,3.061-1.273l29.289,10.058c2.452-17.438-0.789-35.646-9.594-51.037  c-11.736-20.515-32.58-35.136-55.758-39.111c-23.832-4.088-48.795,3.059-66.78,19.123c-18.041,16.113-27.963,40.167-26.541,64.344  c0.131,2.235,0.378,4.471,0.702,6.699l29.339-10.075c1.199-0.409,2.511,0.137,3.062,1.273l33.482,69.083  c0.552,1.139,0.167,2.509-0.897,3.193l-29.41,18.923c-0.407,0.262-0.877,0.397-1.353,0.397c-0.227,0-0.454-0.03-0.676-0.093  c-0.688-0.194-1.261-0.673-1.573-1.316l-4.059-8.376l-15.667,5.381c-0.268,0.092-0.542,0.136-0.812,0.136  c-0.935,0-1.822-0.526-2.25-1.409L1.705,134.517c-0.552-1.139-0.166-2.509,0.897-3.193l2.759-1.775  c-2.914-8.359-4.672-17.066-5.198-26.014c-1.72-29.256,10.289-58.365,32.125-77.868C54.058,6.221,84.271-2.436,113.108,2.513  c28.07,4.814,53.307,22.509,67.507,47.332C194.346,73.846,196.894,103.503,187.942,129.541z"/>
<g>
</g>
<g>
</g>
<g>
</g>
<g>
</g>
<g>
</g>
<g>
</g>
<g>
</g>
<g>
</g>
<g>
</g>
<g>
</g>
<g>
</g>
<g>
</g>
<g>
</g>
<g>
</g>
<g>
</g>
</svg>