<svg xmlns="http://www.w3.org/2000/svg" xmlns:xlink="http://www.w3.org/1999/xlink" version="1.1" id="Capa_1" x="0px" y="0px" viewBox="0 0 360 360" style="enable-background:new 0 0 360 360;" xml:space="preserve" width="360"  height="360" >
<g id="XMLID_923_">
	<path id="XMLID_924_" d="M345,127.272h-50V77.834L211.977,0H15v360h280v-50h50V127.272z M315,280H105V157.273h210V280z"/>
	<polygon id="XMLID_927_" points="126.821,231.156 132.301,231.156 132.301,207.596 141.381,207.596 141.381,202.756    117.741,202.756 117.741,207.596 126.821,207.596  "/>
	<path id="XMLID_928_" d="M145.682,226.896c1.213,1.347,2.666,2.427,4.359,3.24c1.693,0.813,3.58,1.22,5.66,1.22   c2,0,3.854-0.393,5.561-1.181c1.706-0.785,3.173-1.84,4.399-3.16c1.227-1.319,2.187-2.84,2.88-4.559   c0.693-1.72,1.04-3.526,1.04-5.42c0-1.786-0.333-3.546-1-5.28c-0.667-1.732-1.6-3.279-2.8-4.64c-1.2-1.36-2.646-2.46-4.34-3.3   c-1.693-0.84-3.567-1.26-5.62-1.26c-2,0-3.854,0.394-5.56,1.18c-1.707,0.787-3.181,1.847-4.42,3.18   c-1.24,1.334-2.214,2.867-2.921,4.6c-0.706,1.734-1.06,3.547-1.06,5.441c0,1.813,0.333,3.587,1,5.32   C143.527,224.01,144.468,225.55,145.682,226.896z M148.001,213.496c0.36-1.133,0.887-2.146,1.58-3.04   c0.693-0.894,1.561-1.612,2.6-2.159c1.04-0.547,2.226-0.82,3.56-0.82c1.28,0,2.434,0.26,3.46,0.779   c1.026,0.52,1.894,1.221,2.601,2.1c0.706,0.88,1.253,1.894,1.64,3.04c0.386,1.146,0.58,2.334,0.58,3.56   c0,1.174-0.18,2.327-0.54,3.46c-0.36,1.134-0.894,2.154-1.601,3.061c-0.706,0.906-1.573,1.633-2.6,2.18   c-1.026,0.547-2.207,0.82-3.54,0.82c-1.307,0-2.474-0.267-3.5-0.801c-1.026-0.533-1.893-1.24-2.6-2.119   c-0.707-0.881-1.247-1.893-1.62-3.041c-0.374-1.145-0.561-2.332-0.561-3.559C147.461,215.783,147.642,214.63,148.001,213.496z"/>
	<path id="XMLID_931_" d="M179.341,221.637h5.439l5.801,9.52h6.199l-6.479-10.68c1.573-0.666,2.819-1.754,3.74-3.26   c0.92-1.507,1.38-3.181,1.38-5.02c0-1.146-0.228-2.286-0.681-3.42c-0.453-1.134-1.08-2.146-1.88-3.04   c-0.8-0.893-1.754-1.613-2.859-2.16c-1.107-0.547-2.315-0.82-3.62-0.82H173.82v28.4h5.52V221.637z M179.341,207.596h6.68   c0.481,0,0.953,0.114,1.42,0.34c0.467,0.228,0.88,0.547,1.24,0.961c0.36,0.414,0.646,0.9,0.86,1.46   c0.213,0.56,0.319,1.173,0.319,1.84c0,0.64-0.094,1.239-0.279,1.8c-0.188,0.561-0.441,1.047-0.761,1.46   c-0.319,0.414-0.7,0.74-1.14,0.979c-0.441,0.24-0.914,0.361-1.42,0.361h-6.92V207.596z"/>
	<path id="XMLID_934_" d="M205.94,221.637h5.439l5.801,9.52h6.199l-6.48-10.68c1.573-0.666,2.819-1.754,3.74-3.26   c0.92-1.507,1.38-3.181,1.38-5.02c0-1.146-0.227-2.286-0.681-3.42c-0.453-1.134-1.08-2.146-1.88-3.04   c-0.8-0.893-1.754-1.613-2.859-2.16c-1.107-0.547-2.314-0.82-3.62-0.82H200.42v28.4h5.521V221.637z M205.94,207.596h6.68   c0.48,0,0.953,0.114,1.42,0.34c0.467,0.228,0.88,0.547,1.24,0.961c0.36,0.414,0.646,0.9,0.86,1.46   c0.213,0.56,0.319,1.173,0.319,1.84c0,0.64-0.094,1.239-0.279,1.8c-0.188,0.561-0.441,1.047-0.761,1.46   c-0.319,0.414-0.7,0.74-1.14,0.979c-0.44,0.24-0.914,0.361-1.42,0.361h-6.92V207.596z"/>
	<polygon id="XMLID_937_" points="246.74,226.316 232.54,226.316 232.54,218.916 244.5,218.916 244.5,214.436 232.54,214.436    232.54,207.596 246.38,207.596 246.38,202.756 227.019,202.756 227.019,231.156 246.74,231.156  "/>
	<polygon id="XMLID_938_" points="256.58,212.956 271.18,231.156 275.66,231.156 275.66,202.797 270.14,202.797 270.14,221.396    255.34,202.756 251.06,202.756 251.06,231.156 256.58,231.156  "/>
	<polygon id="XMLID_939_" points="288.26,231.156 293.739,231.156 293.739,207.596 302.819,207.596 302.819,202.756 279.18,202.756    279.18,207.596 288.26,207.596  "/>
</g>
<g>
</g>
<g>
</g>
<g>
</g>
<g>
</g>
<g>
</g>
<g>
</g>
<g>
</g>
<g>
</g>
<g>
</g>
<g>
</g>
<g>
</g>
<g>
</g>
<g>
</g>
<g>
</g>
<g>
</g>
</svg>